<svg width="26" height="26" viewBox="0 0 26 26" fill="none" xmlns="http://www.w3.org/2000/svg">
<g clip-path="url(#clip0_9_747)">
<path d="M23.112 4.33398H2.88976C2.50667 4.33398 2.13927 4.48617 1.86838 4.75705C1.59749 5.02794 1.44531 5.39534 1.44531 5.77843V20.2229C1.44531 20.606 1.59749 20.9734 1.86838 21.2443C2.13927 21.5151 2.50667 21.6673 2.88976 21.6673H13.7231L14.1348 21.1618L14.8064 20.3384L14.7414 20.2229H2.88976V5.77843H23.112V11.9607C23.6607 12.3157 24.1485 12.7572 24.5564 13.2679V5.77843C24.5564 5.39534 24.4042 5.02794 24.1334 4.75705C23.8625 4.48617 23.4951 4.33398 23.112 4.33398Z" fill="#1776E0"/>
<path d="M5.05469 8.66602H17.3325V9.82157H5.05469V8.66602Z" fill="#1776E0"/>
<path d="M5.05469 11.5547H12.9991V12.7102H5.05469V11.5547Z" fill="#1776E0"/>
<path d="M5.05469 16.6113H12.2769V17.7669H5.05469V16.6113Z" fill="#1776E0"/>
<path d="M19.8329 12.4435C18.9087 12.4362 18.0038 12.7078 17.2364 13.2229C16.469 13.738 15.8749 14.4726 15.5317 15.3308C15.1884 16.1889 15.112 17.1306 15.3124 18.0329C15.5129 18.9351 15.9808 19.7559 16.6552 20.3879L15.254 22.0996L15.904 24.7068L18.5474 21.4857C19.3841 21.7331 20.2745 21.7331 21.1113 21.4857L23.7546 24.7068L24.4046 22.0996L23.0035 20.3879C23.6778 19.7559 24.1458 18.9351 24.3462 18.0329C24.5466 17.1306 24.4702 16.1889 24.127 15.3308C23.7837 14.4726 23.1896 13.738 22.4222 13.2229C21.6548 12.7078 20.7499 12.4362 19.8257 12.4435H19.8329ZM19.8329 20.1568C19.2192 20.1483 18.6217 19.9585 18.1155 19.6113C17.6094 19.2641 17.2171 18.775 16.9882 18.2055C16.7592 17.6361 16.7037 17.0116 16.8287 16.4107C16.9536 15.8097 17.2535 15.2591 17.6905 14.8281C18.1275 14.3971 18.6821 14.1049 19.2848 13.9883C19.8874 13.8717 20.511 13.9358 21.0773 14.1726C21.6435 14.4094 22.1271 14.8084 22.4673 15.3193C22.8075 15.8302 22.989 16.4303 22.989 17.0441C22.9814 17.8748 22.6451 18.6686 22.0536 19.252C21.4621 19.8354 20.6637 20.1607 19.8329 20.1568Z" fill="#1776E0"/>
</g>
<defs>
<clipPath id="clip0_9_747">
<rect width="26" height="26" fill="white"/>
</clipPath>
</defs>
</svg>
