<svg width="21" height="19" viewBox="0 0 21 19" fill="none" xmlns="http://www.w3.org/2000/svg">
<g clip-path="url(#clip0_1_1426)">
<path d="M19.25 1.78116H16.4062V0.593658C16.4064 0.436185 16.3373 0.285121 16.2143 0.173697C16.0914 0.0622731 15.9245 -0.000383159 15.7504 -0.00048814C15.5764 -0.000593122 15.4094 0.0618618 15.2863 0.173137C15.1631 0.284413 15.0939 0.435394 15.0938 0.592866V1.78116H11.1562V0.593658C11.1563 0.515685 11.1394 0.438466 11.1065 0.366409C11.0735 0.294352 11.0252 0.228869 10.9643 0.173697C10.9035 0.118526 10.8311 0.0747466 10.7515 0.0448599C10.6719 0.0149731 10.5866 -0.000436168 10.5004 -0.000488149C10.3264 -0.000593131 10.1594 0.0618618 10.0363 0.173137C9.91312 0.284413 9.84387 0.435394 9.84375 0.592866V1.78116H5.90625V0.593658C5.90631 0.515685 5.88939 0.438466 5.85646 0.366409C5.82354 0.294352 5.77525 0.228869 5.71435 0.173697C5.65345 0.118526 5.58114 0.0747466 5.50154 0.0448599C5.42194 0.0149731 5.33662 -0.000436168 5.25044 -0.000488149C5.07639 -0.000593131 4.90942 0.0618618 4.78627 0.173137C4.66312 0.284413 4.59387 0.435394 4.59375 0.592866V1.78116H1.75C1.28602 1.78116 0.841036 1.94786 0.512872 2.24463C0.184709 2.54139 0.000231989 2.94391 0 3.3637V17.4158C0 17.8357 0.184374 18.2384 0.512563 18.5354C0.840752 18.8323 1.28587 18.9991 1.75 18.9991H19.25C19.7141 18.9991 20.1592 18.8323 20.4874 18.5354C20.8156 18.2384 21 17.8357 21 17.4158V3.3637C20.9998 2.94391 20.8153 2.54139 20.4871 2.24463C20.159 1.94786 19.714 1.78116 19.25 1.78116ZM19.6875 17.4166C19.6875 17.5214 19.6415 17.622 19.5597 17.6962C19.4778 17.7704 19.3668 17.8122 19.2509 17.8124H1.75C1.63397 17.8124 1.52269 17.7707 1.44064 17.6965C1.35859 17.6222 1.3125 17.5216 1.3125 17.4166V3.36449C1.31273 3.25965 1.35893 3.15917 1.44095 3.08511C1.52297 3.01104 1.63412 2.96945 1.75 2.96945H4.59375V4.15695C4.59363 4.31442 4.66266 4.46549 4.78565 4.57691C4.90864 4.68833 5.07551 4.75099 5.24956 4.7511C5.42361 4.7512 5.59058 4.68875 5.71373 4.57747C5.83688 4.46619 5.90613 4.31521 5.90625 4.15774V2.96945H9.84375V4.15695C9.84363 4.31442 9.91266 4.46549 10.0357 4.57691C10.1586 4.68833 10.3255 4.75099 10.4996 4.7511C10.6736 4.7512 10.8406 4.68875 10.9637 4.57747C11.0869 4.46619 11.1561 4.31521 11.1562 4.15774V2.96945H15.0938V4.15695C15.0936 4.31442 15.1627 4.46549 15.2857 4.57691C15.4086 4.68833 15.5755 4.75099 15.7496 4.7511C15.9236 4.7512 16.0906 4.68875 16.2137 4.57747C16.3369 4.46619 16.4061 4.31521 16.4062 4.15774V2.96945H19.25C19.3657 2.96966 19.4767 3.01135 19.5585 3.08539C19.6403 3.15942 19.6864 3.25978 19.6866 3.36449L19.6875 17.4166Z" fill="white"/>
<path d="M4.59375 7.125H7.21875V8.90625H4.59375V7.125ZM4.59375 10.0938H7.21875V11.875H4.59375V10.0938ZM4.59375 13.0625H7.21875V14.8438H4.59375V13.0625ZM9.1875 13.0625H11.8125V14.8438H9.1875V13.0625ZM9.1875 10.0938H11.8125V11.875H9.1875V10.0938ZM9.1875 7.125H11.8125V8.90625H9.1875V7.125ZM13.7812 13.0625H16.4062V14.8438H13.7812V13.0625ZM13.7812 10.0938H16.4062V11.875H13.7812V10.0938ZM13.7812 7.125H16.4062V8.90625H13.7812V7.125Z" fill="white"/>
</g>
<defs>
<clipPath id="clip0_1_1426">
<rect width="21" height="19" fill="white"/>
</clipPath>
</defs>
</svg>
