<svg width="59" height="59" viewBox="0 0 59 59" fill="none" xmlns="http://www.w3.org/2000/svg">
<path d="M36.9772 18C39.0892 18 40.7992 19.74 40.7992 21.882C40.7992 24.024 39.0904 25.7628 36.9772 25.7628C36.4363 25.762 35.9018 25.6456 35.4096 25.4212C34.9175 25.1969 34.479 24.8698 34.1236 24.462L26.5828 28.59C26.7508 29.0268 26.842 29.502 26.842 30C26.842 30.6504 26.686 31.2624 26.4064 31.8012L33.616 36.2712C33.9392 35.6593 34.4227 35.1467 35.0148 34.7884C35.6068 34.4301 36.2852 34.2396 36.9772 34.2372C39.0892 34.2372 40.7992 35.9772 40.7992 38.118C40.7992 40.2588 39.0904 42 36.9772 42C34.8652 42 33.1564 40.26 33.1564 38.118L33.16 37.9524L25.324 33.0972C24.664 33.6065 23.8537 33.8825 23.02 33.882C20.9092 33.882 19.1992 32.142 19.1992 30C19.1992 27.858 20.908 26.118 23.0212 26.118C24.0436 26.118 24.9724 26.526 25.6576 27.1896L33.316 22.998C33.2099 22.6355 33.1561 22.2597 33.1564 21.882C33.1552 19.74 34.8652 18 36.9772 18ZM36.9772 35.9112C35.7868 35.9112 34.8172 36.8976 34.8172 38.1192C34.8172 39.3396 35.7868 40.326 36.9772 40.326C38.1688 40.326 39.1372 39.3396 39.1372 38.118C39.1372 36.8976 38.1688 35.9112 36.9772 35.9112ZM23.0212 27.7932C21.8296 27.7932 20.8612 28.7796 20.8612 30C20.8612 31.2204 21.8296 32.208 23.0212 32.208C24.2116 32.208 25.1812 31.2204 25.1812 30C25.1812 28.7796 24.2116 27.792 23.0212 27.792M36.9772 19.6728C35.7868 19.6728 34.8172 20.6592 34.8172 21.8808C34.8172 23.1012 35.7868 24.0876 36.9772 24.0876C38.1688 24.0876 39.1372 23.1012 39.1372 21.8796C39.1372 20.6592 38.1688 19.6728 36.9772 19.6728Z" fill="#0071C4"/>
</svg>
