<svg width="102" height="102" viewBox="0 0 102 102" fill="none" xmlns="http://www.w3.org/2000/svg">
<rect width="102" height="102" rx="11.6571" fill="#C6E3FF"/>
<path d="M52.0923 49.5421C52.0923 49.2522 51.9772 48.9743 51.7722 48.7693C51.5673 48.5644 51.2893 48.4492 50.9994 48.4492C50.7096 48.4492 50.4316 48.5644 50.2267 48.7693C50.0217 48.9743 49.9066 49.2522 49.9066 49.5421V52.8206H46.628C46.3382 52.8206 46.0602 52.9358 45.8552 53.1407C45.6503 53.3457 45.5352 53.6237 45.5352 53.9135C45.5352 54.2033 45.6503 54.4813 45.8552 54.6863C46.0602 54.8912 46.3382 55.0064 46.628 55.0064H49.9066V58.2849C49.9066 58.5748 50.0217 58.8527 50.2267 59.0577C50.4316 59.2626 50.7096 59.3778 50.9994 59.3778C51.2893 59.3778 51.5673 59.2626 51.7722 59.0577C51.9772 58.8527 52.0923 58.5748 52.0923 58.2849V55.0064H55.3709C55.6607 55.0064 55.9387 54.8912 56.1436 54.6863C56.3486 54.4813 56.4637 54.2033 56.4637 53.9135C56.4637 53.6237 56.3486 53.3457 56.1436 53.1407C55.9387 52.9358 55.6607 52.8206 55.3709 52.8206H52.0923V49.5421Z" fill="#1F86D0"/>
<path fill-rule="evenodd" clip-rule="evenodd" d="M50.9983 35.334C49.9666 35.334 49.0297 35.6298 48.0111 36.1238C47.029 36.6017 45.8924 37.307 44.4746 38.1871L41.4627 40.0566C40.1222 40.8901 39.0453 41.5574 38.2177 42.1913C37.3594 42.847 36.7008 43.5173 36.2243 44.3872C35.7493 45.2542 35.5365 46.178 35.4331 47.2694C35.334 48.3259 35.334 49.6198 35.334 51.2416V53.592C35.334 56.3664 35.334 58.5565 35.5569 60.2686C35.7842 62.0245 36.2651 63.4423 37.3492 64.5628C38.4377 65.6892 39.822 66.1933 41.5385 66.4309C43.1996 66.6625 45.3242 66.6625 47.9995 66.6625H53.9971C56.6724 66.6625 58.7969 66.6625 60.458 66.4309C62.1731 66.1933 63.5588 65.6892 64.6488 64.5628C65.7314 63.4423 66.2123 62.0245 66.4411 60.2686C66.6625 58.5565 66.6625 56.3664 66.6625 53.592V51.2416C66.6625 49.6198 66.6625 48.3273 66.5634 47.2694C66.4615 46.1766 66.2473 45.2542 65.7722 44.3872C65.2957 43.5173 64.6357 42.8485 63.7789 42.1913C62.9512 41.556 61.8758 40.8901 60.5338 40.0566L57.5219 38.1871C56.1041 37.307 54.9675 36.6017 53.9839 36.1238C52.9683 35.6283 52.0314 35.334 50.9983 35.334ZM45.5777 40.0755C47.0567 39.1575 48.0985 38.5135 48.9685 38.0894C49.8151 37.6771 50.4154 37.5197 50.9983 37.5197C51.5811 37.5197 52.1815 37.6771 53.0281 38.0894C53.8994 38.512 54.9398 39.1575 56.4188 40.0755L59.3331 41.8838C60.7334 42.7538 61.717 43.3643 62.4514 43.9268C63.1639 44.4732 63.5734 44.9234 63.8546 45.4363C64.1359 45.9507 64.3005 46.5525 64.3865 47.4734C64.4754 48.4177 64.4768 49.6081 64.4768 51.2955V53.5118C64.4768 56.3824 64.4739 58.4311 64.2728 59.9859C64.0747 61.513 63.7002 62.3989 63.078 63.0445C62.4587 63.6841 61.6165 64.0645 60.1579 64.267C58.6628 64.4739 56.6913 64.4768 53.9125 64.4768H48.084C45.3038 64.4768 43.3337 64.4739 41.8387 64.267C40.3801 64.063 39.5378 63.6841 38.92 63.043C38.2964 62.3989 37.9219 61.513 37.7252 59.9859C37.5212 58.4311 37.5197 56.3839 37.5197 53.5118V51.2955C37.5197 49.6081 37.5197 48.4177 37.61 47.4734C37.696 46.5525 37.8607 45.9507 38.1419 45.4363C38.4231 44.9234 38.8326 44.4732 39.5466 43.9268C40.2795 43.3643 41.2631 42.7538 42.6634 41.8838L45.5777 40.0755Z" fill="#1F86D0"/>
</svg>
