<svg width="123" height="123" viewBox="0 0 123 123" fill="none" xmlns="http://www.w3.org/2000/svg">
<rect width="123" height="123" rx="12" fill="white"/>
<path d="M51.875 49.75C50.3832 49.75 48.9524 50.3426 47.8975 51.3975C46.8426 52.4524 46.25 53.8832 46.25 55.375V66.625C46.25 68.1168 46.8426 69.5476 47.8975 70.6025C48.9524 71.6574 50.3832 72.25 51.875 72.25H63.125C64.6168 72.25 66.0476 71.6574 67.1025 70.6025C68.1574 69.5476 68.75 68.1168 68.75 66.625V66.3393L73.3288 69.5005C73.7508 69.7917 74.2444 69.9621 74.7562 69.9931C75.268 70.0241 75.7785 69.9146 76.2326 69.6764C76.6867 69.4383 77.067 69.0805 77.3325 68.6418C77.5979 68.2032 77.7384 67.7002 77.7388 67.1875V54.817C77.7384 54.3043 77.5979 53.8013 77.3325 53.3627C77.067 52.924 76.6867 52.5662 76.2326 52.3281C75.7785 52.0899 75.268 51.9804 74.7562 52.0114C74.2444 52.0424 73.7508 52.2128 73.3288 52.504L68.75 55.6653V55.375C68.75 53.8832 68.1574 52.4524 67.1025 51.3975C66.0476 50.3426 64.6168 49.75 63.125 49.75H51.875ZM68.75 58.399L74.609 54.3535C74.6935 54.2952 74.7923 54.2611 74.8947 54.255C74.9971 54.2488 75.0993 54.2708 75.1902 54.3185C75.281 54.3663 75.3571 54.4379 75.4101 54.5258C75.4631 54.6137 75.4911 54.7144 75.491 54.817V67.1875C75.4907 67.2899 75.4624 67.3903 75.4092 67.4779C75.356 67.5654 75.2799 67.6368 75.1892 67.6843C75.0984 67.7317 74.9964 67.7535 74.8941 67.7472C74.7919 67.741 74.6933 67.7069 74.609 67.6488L68.75 63.6055V58.399ZM48.5 55.375C48.5 54.4799 48.8556 53.6214 49.4885 52.9885C50.1214 52.3556 50.9799 52 51.875 52H63.125C64.0201 52 64.8786 52.3556 65.5115 52.9885C66.1444 53.6214 66.5 54.4799 66.5 55.375V66.625C66.5 67.5201 66.1444 68.3786 65.5115 69.0115C64.8786 69.6444 64.0201 70 63.125 70H51.875C50.9799 70 50.1214 69.6444 49.4885 69.0115C48.8556 68.3786 48.5 67.5201 48.5 66.625V55.375Z" fill="#004E87"/>
</svg>
