<svg width="123" height="123" viewBox="0 0 123 123" fill="none" xmlns="http://www.w3.org/2000/svg">
<rect width="123" height="123" rx="12" fill="white"/>
<path d="M71.2276 72.5005C68.6979 72.5005 66.1985 71.9492 63.7294 70.8466C61.2604 69.7441 59.014 68.1805 56.9901 66.1559C54.9663 64.1312 53.4031 61.8848 52.3006 59.4166C51.198 56.9483 50.6463 54.4489 50.6455 51.9184C50.6455 51.5541 50.7669 51.2505 51.0098 51.0077C51.2526 50.7648 51.5562 50.6434 51.9205 50.6434H56.8384C57.1217 50.6434 57.3747 50.7397 57.5973 50.9324C57.8199 51.125 57.9515 51.3525 57.9919 51.6148L58.7812 55.8648C58.8217 56.1886 58.8116 56.4618 58.7509 56.6844C58.6901 56.9071 58.5788 57.0993 58.4169 57.2612L55.4723 60.2362C55.877 60.985 56.3575 61.7083 56.9136 62.4061C57.4698 63.104 58.0822 63.7771 58.7509 64.4255C59.3782 65.0529 60.036 65.6349 60.7241 66.1716C61.4122 66.7084 62.1407 67.1989 62.9098 67.6434L65.7633 64.7898C65.9455 64.6076 66.1835 64.4712 66.4773 64.3806C66.7712 64.2899 67.0594 64.2644 67.3419 64.3041L71.5312 65.1541C71.8145 65.235 72.0473 65.382 72.2294 65.5949C72.4116 65.8078 72.5026 66.0454 72.5026 66.3076V71.2255C72.5026 71.5898 72.3812 71.8934 72.1383 72.1362C71.8955 72.3791 71.5919 72.5005 71.2276 72.5005ZM54.3187 57.9291L56.3223 55.9255L55.8062 53.0719H53.1044C53.2056 53.9017 53.3473 54.7213 53.5294 55.5309C53.7116 56.3404 53.9747 57.1398 54.3187 57.9291ZM65.1866 68.7969C65.9758 69.141 66.7805 69.4142 67.6006 69.6166C68.4206 69.8189 69.2451 69.9505 70.0741 70.0112V67.3398L67.2205 66.763L65.1866 68.7969Z" fill="#004E87"/>
</svg>
