<svg width="123" height="123" viewBox="0 0 123 123" fill="none" xmlns="http://www.w3.org/2000/svg">
<rect width="123" height="123" rx="12" fill="#1F9FE6"/>
<path d="M62.5786 60.0289C62.5786 59.739 62.4635 59.4611 62.2585 59.2561C62.0536 59.0512 61.7756 58.936 61.4858 58.936C61.1959 58.936 60.9179 59.0512 60.713 59.2561C60.508 59.4611 60.3929 59.739 60.3929 60.0289V63.3075H57.1143C56.8245 63.3075 56.5465 63.4226 56.3416 63.6276C56.1366 63.8325 56.0215 64.1105 56.0215 64.4003C56.0215 64.6902 56.1366 64.9681 56.3416 65.1731C56.5465 65.378 56.8245 65.4932 57.1143 65.4932H60.3929V68.7717C60.3929 69.0616 60.508 69.3396 60.713 69.5445C60.9179 69.7495 61.1959 69.8646 61.4858 69.8646C61.7756 69.8646 62.0536 69.7495 62.2585 69.5445C62.4635 69.3396 62.5786 69.0616 62.5786 68.7717V65.4932H65.8572C66.147 65.4932 66.425 65.378 66.63 65.1731C66.8349 64.9681 66.95 64.6902 66.95 64.4003C66.95 64.1105 66.8349 63.8325 66.63 63.6276C66.425 63.4226 66.147 63.3075 65.8572 63.3075H62.5786V60.0289Z" fill="white"/>
<path fill-rule="evenodd" clip-rule="evenodd" d="M61.4836 45.821C60.452 45.821 59.515 46.1168 58.4965 46.6108C57.5144 47.0887 56.3778 47.794 54.96 48.6741L51.9481 50.5436C50.6075 51.3771 49.5307 52.0444 48.703 52.6783C47.8448 53.334 47.1861 54.0043 46.7096 54.8742C46.2346 55.7412 46.0219 56.665 45.9184 57.7564C45.8193 58.8129 45.8193 60.1068 45.8193 61.7286V64.079C45.8193 66.8534 45.8193 69.0435 46.0423 70.7556C46.2696 72.5115 46.7504 73.9293 47.8346 75.0498C48.923 76.1762 50.3073 76.6803 52.0238 76.9179C53.685 77.1495 55.8095 77.1495 58.4848 77.1495H64.4824C67.1577 77.1495 69.2822 77.1495 70.9434 76.9179C72.6584 76.6803 74.0442 76.1762 75.1341 75.0498C76.2168 73.9293 76.6976 72.5115 76.9264 70.7556C77.1479 69.0435 77.1479 66.8534 77.1479 64.079V61.7286C77.1479 60.1068 77.1479 58.8143 77.0488 57.7564C76.9468 56.6636 76.7326 55.7412 76.2576 54.8742C75.7811 54.0043 75.121 53.3355 74.2642 52.6783C73.4365 52.043 72.3612 51.3771 71.0191 50.5436L68.0072 48.6741C66.5894 47.794 65.4529 47.0887 64.4693 46.6108C63.4537 46.1153 62.5167 45.821 61.4836 45.821ZM56.063 50.5625C57.542 49.6445 58.5839 49.0005 59.4538 48.5764C60.3004 48.1641 60.9008 48.0067 61.4836 48.0067C62.0665 48.0067 62.6668 48.1641 63.5134 48.5764C64.3848 48.999 65.4252 49.6445 66.9042 50.5625L69.8185 52.3708C71.2188 53.2408 72.2024 53.8513 72.9367 54.4137C73.6493 54.9602 74.0587 55.4104 74.34 55.9233C74.6212 56.4377 74.7859 57.0395 74.8718 57.9604C74.9607 58.9047 74.9622 60.0951 74.9622 61.7825V63.9988C74.9622 66.8694 74.9593 68.9181 74.7582 70.4729C74.56 72 74.1855 72.8859 73.5633 73.5315C72.944 74.1711 72.1018 74.5515 70.6432 74.754C69.1482 74.9609 67.1767 74.9638 64.3979 74.9638H58.5693C55.7891 74.9638 53.819 74.9609 52.324 74.754C50.8654 74.55 50.0232 74.1711 49.4054 73.53C48.7817 72.8859 48.4072 72 48.2105 70.4729C48.0065 68.9181 48.005 66.8709 48.005 63.9988V61.7825C48.005 60.0951 48.005 58.9047 48.0954 57.9604C48.1814 57.0395 48.346 56.4377 48.6272 55.9233C48.9085 55.4104 49.3179 54.9602 50.0319 54.4137C50.7649 53.8513 51.7484 53.2408 53.1488 52.3708L56.063 50.5625Z" fill="white"/>
</svg>
