<svg width="102" height="102" viewBox="0 0 102 102" fill="none" xmlns="http://www.w3.org/2000/svg">
<rect width="102" height="102" rx="11.6571" fill="#C6E3FF"/>
<path d="M60.6505 61.9294C58.1207 61.9294 55.6213 61.3781 53.1523 60.2755C50.6832 59.173 48.4368 57.6094 46.413 55.5847C44.3892 53.5601 42.826 51.3137 41.7234 48.8455C40.6209 46.3772 40.0692 43.8778 40.0684 41.3473C40.0684 40.983 40.1898 40.6794 40.4326 40.4366C40.6755 40.1937 40.9791 40.0723 41.3434 40.0723H46.2612C46.5445 40.0723 46.7975 40.1686 47.0201 40.3613C47.2428 40.5539 47.3743 40.7814 47.4148 41.0437L48.2041 45.2937C48.2445 45.6175 48.2344 45.8907 48.1737 46.1133C48.113 46.3359 48.0017 46.5282 47.8398 46.6901L44.8951 49.6651C45.2999 50.4139 45.7804 51.1372 46.3365 51.835C46.8926 52.5328 47.505 53.206 48.1737 53.8544C48.8011 54.4818 49.4588 55.0638 50.1469 55.6005C50.835 56.1372 51.5636 56.6278 52.3326 57.0722L55.1862 54.2187C55.3683 54.0365 55.6063 53.9001 55.9002 53.8095C56.1941 53.7188 56.4822 53.6933 56.7648 53.733L60.9541 54.583C61.2374 54.6639 61.4701 54.8108 61.6523 55.0237C61.8344 55.2367 61.9255 55.4742 61.9255 55.7365V60.6544C61.9255 61.0187 61.8041 61.3222 61.5612 61.5651C61.3183 61.808 61.0148 61.9294 60.6505 61.9294ZM43.7416 47.358L45.7451 45.3544L45.2291 42.5008H42.5273C42.6285 43.3306 42.7701 44.1502 42.9523 44.9598C43.1344 45.7693 43.3975 46.5687 43.7416 47.358ZM54.6094 58.2258C55.3987 58.5699 56.2034 58.8431 57.0234 59.0455C57.8435 59.2478 58.668 59.3794 59.4969 59.4401V56.7687L56.6433 56.1919L54.6094 58.2258Z" fill="#1F86D0"/>
</svg>
