<svg width="27" height="27" viewBox="0 0 27 27" fill="none" xmlns="http://www.w3.org/2000/svg">
<path d="M21.3034 5.81858C20.3102 4.81533 19.1272 4.01989 17.8233 3.47864C16.5195 2.93738 15.1209 2.66116 13.7092 2.66608C7.79422 2.66608 2.97339 7.48691 2.97339 13.4019C2.97339 15.2977 3.47172 17.1394 4.40339 18.7644L2.88672 24.3327L8.57422 22.8377C10.1451 23.6936 11.9109 24.1486 13.7092 24.1486C19.6242 24.1486 24.4451 19.3277 24.4451 13.4127C24.4451 10.5419 23.3292 7.84441 21.3034 5.81858ZM13.7092 22.3286C12.1059 22.3286 10.5351 21.8952 9.15922 21.0827L8.83422 20.8877L5.45422 21.7761L6.35339 18.4827L6.13672 18.1469C5.24594 16.7245 4.77295 15.0803 4.77172 13.4019C4.77172 8.48358 8.78005 4.47525 13.6984 4.47525C16.0817 4.47525 18.3242 5.40691 20.0034 7.09691C20.8348 7.92454 21.4937 8.90896 21.9419 9.99312C22.3901 11.0773 22.6186 12.2396 22.6142 13.4127C22.6359 18.3311 18.6276 22.3286 13.7092 22.3286ZM18.6059 15.6552C18.3351 15.5252 17.0134 14.8752 16.7751 14.7777C16.5259 14.6911 16.3526 14.6477 16.1684 14.9077C15.9842 15.1786 15.4751 15.7852 15.3234 15.9586C15.1717 16.1427 15.0092 16.1644 14.7384 16.0236C14.4676 15.8936 13.6009 15.6011 12.5826 14.6911C11.7809 13.9761 11.2501 13.0986 11.0876 12.8277C10.9359 12.5569 11.0659 12.4161 11.2067 12.2752C11.3259 12.1561 11.4776 11.9611 11.6076 11.8094C11.7376 11.6577 11.7917 11.5386 11.8784 11.3652C11.9651 11.1811 11.9217 11.0294 11.8567 10.8994C11.7917 10.7694 11.2501 9.44775 11.0334 8.90608C10.8167 8.38608 10.5892 8.45108 10.4267 8.44025H9.90672C9.72255 8.44025 9.44088 8.50525 9.19172 8.77608C8.95338 9.04691 8.26005 9.69691 8.26005 11.0186C8.26005 12.3402 9.22422 13.6186 9.35422 13.7919C9.48422 13.9761 11.2501 16.6844 13.9367 17.8436C14.5759 18.1252 15.0742 18.2877 15.4642 18.4069C16.1034 18.6127 16.6884 18.5802 17.1542 18.5152C17.6742 18.4394 18.7467 17.8652 18.9634 17.2369C19.1909 16.6086 19.1909 16.0777 19.1151 15.9586C19.0392 15.8394 18.8767 15.7852 18.6059 15.6552Z" fill="black"/>
</svg>
