<svg width="39" height="38" viewBox="0 0 39 38" fill="none" xmlns="http://www.w3.org/2000/svg">
<path d="M19 24.5L16 23M16 23L10 26V13L16 10M16 23V10M16 10L22 13M22 13L28 10V17.5M22 13V18.5M26 24V24.01M28.121 26.121C28.5406 25.7015 28.8265 25.1669 28.9423 24.585C29.0581 24.003 28.9988 23.3997 28.7717 22.8515C28.5447 22.3033 28.1602 21.8347 27.6668 21.505C27.1734 21.1753 26.5934 20.9994 26 20.9994C25.4066 20.9994 24.8266 21.1753 24.3332 21.505C23.8398 21.8347 23.4553 22.3033 23.2283 22.8515C23.0012 23.3997 22.9419 24.003 23.0577 24.585C23.1735 25.1669 23.4594 25.7015 23.879 26.121C24.297 26.5397 25.004 27.166 26 28C27.0513 27.11 27.7583 26.4837 28.121 26.121Z" stroke="black" stroke-width="2" stroke-linecap="round" stroke-linejoin="round"/>
</svg>
