<svg width="24" height="24" viewBox="0 0 24 24" fill="none" xmlns="http://www.w3.org/2000/svg">
<g clip-path="url(#clip0_1_1372)">
<path d="M0 18C0 18.7072 0.280952 19.3855 0.781049 19.8856C1.28115 20.3857 1.95942 20.6667 2.66667 20.6667H21.3333C22.0406 20.6667 22.7189 20.3857 23.219 19.8856C23.719 19.3855 24 18.7072 24 18V14.6667H0V18Z" fill="#138808"/>
<path d="M24 9.33334V6C24 5.29276 23.719 4.61448 23.219 4.11438C22.7189 3.61429 22.0406 3.33334 21.3333 3.33334H2.66667C1.95942 3.33334 1.28115 3.61429 0.781049 4.11438C0.280952 4.61448 0 5.29276 0 6L0 9.33334H24Z" fill="#FF9933"/>
<path d="M0 9.11134H24V14.8893H0V9.11134Z" fill="#F7F7F7"/>
<path d="M12.0002 14.6667C13.4729 14.6667 14.6668 13.4728 14.6668 12C14.6668 10.5272 13.4729 9.33334 12.0002 9.33334C10.5274 9.33334 9.3335 10.5272 9.3335 12C9.3335 13.4728 10.5274 14.6667 12.0002 14.6667Z" fill="#0085D0"/>
<path d="M12 14.25C13.2426 14.25 14.25 13.2426 14.25 12C14.25 10.7574 13.2426 9.75 12 9.75C10.7574 9.75 9.75 10.7574 9.75 12C9.75 13.2426 10.7574 14.25 12 14.25Z" fill="#F7F7F7"/>
<path d="M12.0667 11.1667L12 11.6L11.9334 11.1667L12 9.86667L12.0667 11.1667ZM11.448 9.93934L11.72 11.212L11.8967 11.6133L11.8487 11.178L11.448 9.93934ZM10.9334 10.1527L11.5254 11.3113L11.8 11.6533L11.6414 11.2447L10.9334 10.1527ZM10.4914 10.4913L11.3634 11.458L11.7174 11.7173L11.458 11.3633L10.4914 10.4913ZM10.1527 10.9333L11.2447 11.6413L11.6534 11.8L11.3114 11.5253L10.1527 10.9333ZM9.93937 11.448L11.178 11.8487L11.6134 11.8967L11.212 11.72L9.93937 11.448ZM9.8667 12L11.1667 12.0667L11.6 12L11.1667 11.9333L9.8667 12ZM9.93937 12.552L11.212 12.28L11.6134 12.1033L11.178 12.1513L9.93937 12.552ZM10.1527 13.0667L11.3114 12.4747L11.6534 12.2L11.2447 12.3587L10.1527 13.0667ZM10.4914 13.5087L11.458 12.6367L11.7174 12.2827L11.3634 12.542L10.4914 13.5087ZM10.9334 13.8473L11.6414 12.7553L11.8 12.3467L11.5254 12.6887L10.9334 13.8473ZM11.448 14.0607L11.8487 12.822L11.8967 12.3867L11.72 12.788L11.448 14.0607ZM12 14.1333L12.0667 12.8333L12 12.4L11.9334 12.8333L12 14.1333ZM12.552 14.0607L12.28 12.788L12.1034 12.3867L12.1514 12.822L12.552 14.0607ZM13.0667 13.8473L12.4747 12.6887L12.2 12.3467L12.3587 12.7553L13.0667 13.8473ZM13.5087 13.5087L12.6367 12.542L12.2827 12.2827L12.542 12.6367L13.5087 13.5087ZM13.8474 13.0667L12.7554 12.3587L12.3467 12.2L12.6887 12.4747L13.8474 13.0667ZM14.0607 12.552L12.822 12.1513L12.3867 12.1033L12.788 12.28L14.0607 12.552ZM14.1334 12L12.8334 11.9333L12.4 12L12.8334 12.0667L14.1334 12ZM14.0607 11.448L12.788 11.72L12.3867 11.8967L12.822 11.8487L14.0607 11.448ZM13.8474 10.9333L12.6887 11.5253L12.3467 11.8L12.7554 11.6413L13.8474 10.9333ZM13.5087 10.4913L12.542 11.3633L12.2827 11.7173L12.6367 11.458L13.5087 10.4913ZM13.0667 10.1527L12.3587 11.2447L12.2 11.6533L12.4747 11.3113L13.0667 10.1527ZM12.552 9.93934L12.1514 11.178L12.1034 11.6133L12.28 11.212L12.552 9.93934Z" fill="#6666B3"/>
<path d="M11.7066 9.906C11.7802 9.906 11.8399 9.84631 11.8399 9.77267C11.8399 9.69903 11.7802 9.63934 11.7066 9.63934C11.6329 9.63934 11.5732 9.69903 11.5732 9.77267C11.5732 9.84631 11.6329 9.906 11.7066 9.906Z" fill="#0085D0"/>
<path d="M11.1397 10.058C11.2133 10.058 11.273 9.99831 11.273 9.92467C11.273 9.85103 11.2133 9.79134 11.1397 9.79134C11.066 9.79134 11.0063 9.85103 11.0063 9.92467C11.0063 9.99831 11.066 10.058 11.1397 10.058Z" fill="#0085D0"/>
<path d="M10.6319 10.3507C10.7055 10.3507 10.7652 10.291 10.7652 10.2173C10.7652 10.1437 10.7055 10.084 10.6319 10.084C10.5582 10.084 10.4985 10.1437 10.4985 10.2173C10.4985 10.291 10.5582 10.3507 10.6319 10.3507Z" fill="#0085D0"/>
<path d="M10.2173 10.7653C10.291 10.7653 10.3507 10.7056 10.3507 10.632C10.3507 10.5584 10.291 10.4987 10.2173 10.4987C10.1437 10.4987 10.084 10.5584 10.084 10.632C10.084 10.7056 10.1437 10.7653 10.2173 10.7653Z" fill="#0085D0"/>
<path d="M9.92435 11.2733C9.99799 11.2733 10.0577 11.2136 10.0577 11.14C10.0577 11.0664 9.99799 11.0067 9.92435 11.0067C9.85071 11.0067 9.79102 11.0664 9.79102 11.14C9.79102 11.2136 9.85071 11.2733 9.92435 11.2733Z" fill="#0085D0"/>
<path d="M9.77249 11.84C9.84613 11.84 9.90583 11.7803 9.90583 11.7067C9.90583 11.633 9.84613 11.5733 9.77249 11.5733C9.69886 11.5733 9.63916 11.633 9.63916 11.7067C9.63916 11.7803 9.69886 11.84 9.77249 11.84Z" fill="#0085D0"/>
<path d="M9.77249 12.4267C9.84613 12.4267 9.90583 12.367 9.90583 12.2933C9.90583 12.2197 9.84613 12.16 9.77249 12.16C9.69886 12.16 9.63916 12.2197 9.63916 12.2933C9.63916 12.367 9.69886 12.4267 9.77249 12.4267Z" fill="#0085D0"/>
<path d="M9.92435 12.9933C9.99799 12.9933 10.0577 12.9336 10.0577 12.86C10.0577 12.7864 9.99799 12.7267 9.92435 12.7267C9.85071 12.7267 9.79102 12.7864 9.79102 12.86C9.79102 12.9336 9.85071 12.9933 9.92435 12.9933Z" fill="#0085D0"/>
<path d="M10.2173 13.5013C10.291 13.5013 10.3507 13.4416 10.3507 13.368C10.3507 13.2944 10.291 13.2347 10.2173 13.2347C10.1437 13.2347 10.084 13.2944 10.084 13.368C10.084 13.4416 10.1437 13.5013 10.2173 13.5013Z" fill="#0085D0"/>
<path d="M10.6319 13.916C10.7055 13.916 10.7652 13.8563 10.7652 13.7827C10.7652 13.709 10.7055 13.6493 10.6319 13.6493C10.5582 13.6493 10.4985 13.709 10.4985 13.7827C10.4985 13.8563 10.5582 13.916 10.6319 13.916Z" fill="#0085D0"/>
<path d="M11.1397 14.2087C11.2133 14.2087 11.273 14.149 11.273 14.0753C11.273 14.0017 11.2133 13.942 11.1397 13.942C11.066 13.942 11.0063 14.0017 11.0063 14.0753C11.0063 14.149 11.066 14.2087 11.1397 14.2087Z" fill="#0085D0"/>
<path d="M11.7066 14.3607C11.7802 14.3607 11.8399 14.301 11.8399 14.2273C11.8399 14.1537 11.7802 14.094 11.7066 14.094C11.6329 14.094 11.5732 14.1537 11.5732 14.2273C11.5732 14.301 11.6329 14.3607 11.7066 14.3607Z" fill="#0085D0"/>
<path d="M12.293 14.3607C12.3666 14.3607 12.4263 14.301 12.4263 14.2273C12.4263 14.1537 12.3666 14.094 12.293 14.094C12.2194 14.094 12.1597 14.1537 12.1597 14.2273C12.1597 14.301 12.2194 14.3607 12.293 14.3607Z" fill="#0085D0"/>
<path d="M12.8599 14.2087C12.9335 14.2087 12.9932 14.149 12.9932 14.0753C12.9932 14.0017 12.9335 13.942 12.8599 13.942C12.7863 13.942 12.7266 14.0017 12.7266 14.0753C12.7266 14.149 12.7863 14.2087 12.8599 14.2087Z" fill="#0085D0"/>
<path d="M13.3677 13.916C13.4413 13.916 13.501 13.8563 13.501 13.7827C13.501 13.709 13.4413 13.6493 13.3677 13.6493C13.2941 13.6493 13.2344 13.709 13.2344 13.7827C13.2344 13.8563 13.2941 13.916 13.3677 13.916Z" fill="#0085D0"/>
<path d="M13.7823 13.5013C13.8559 13.5013 13.9156 13.4416 13.9156 13.368C13.9156 13.2944 13.8559 13.2347 13.7823 13.2347C13.7086 13.2347 13.6489 13.2944 13.6489 13.368C13.6489 13.4416 13.7086 13.5013 13.7823 13.5013Z" fill="#0085D0"/>
<path d="M14.0752 12.9933C14.1489 12.9933 14.2086 12.9336 14.2086 12.86C14.2086 12.7864 14.1489 12.7267 14.0752 12.7267C14.0016 12.7267 13.9419 12.7864 13.9419 12.86C13.9419 12.9336 14.0016 12.9933 14.0752 12.9933Z" fill="#0085D0"/>
<path d="M14.2271 12.4267C14.3007 12.4267 14.3604 12.367 14.3604 12.2933C14.3604 12.2197 14.3007 12.16 14.2271 12.16C14.1534 12.16 14.0938 12.2197 14.0938 12.2933C14.0938 12.367 14.1534 12.4267 14.2271 12.4267Z" fill="#0085D0"/>
<path d="M14.2271 11.84C14.3007 11.84 14.3604 11.7803 14.3604 11.7067C14.3604 11.633 14.3007 11.5733 14.2271 11.5733C14.1534 11.5733 14.0938 11.633 14.0938 11.7067C14.0938 11.7803 14.1534 11.84 14.2271 11.84Z" fill="#0085D0"/>
<path d="M14.0752 11.2733C14.1489 11.2733 14.2086 11.2136 14.2086 11.14C14.2086 11.0664 14.1489 11.0067 14.0752 11.0067C14.0016 11.0067 13.9419 11.0664 13.9419 11.14C13.9419 11.2136 14.0016 11.2733 14.0752 11.2733Z" fill="#0085D0"/>
<path d="M13.7823 10.7653C13.8559 10.7653 13.9156 10.7056 13.9156 10.632C13.9156 10.5584 13.8559 10.4987 13.7823 10.4987C13.7086 10.4987 13.6489 10.5584 13.6489 10.632C13.6489 10.7056 13.7086 10.7653 13.7823 10.7653Z" fill="#0085D0"/>
<path d="M13.3677 10.3507C13.4413 10.3507 13.501 10.291 13.501 10.2173C13.501 10.1437 13.4413 10.084 13.3677 10.084C13.2941 10.084 13.2344 10.1437 13.2344 10.2173C13.2344 10.291 13.2941 10.3507 13.3677 10.3507Z" fill="#0085D0"/>
<path d="M12.8599 10.058C12.9335 10.058 12.9932 9.99831 12.9932 9.92467C12.9932 9.85103 12.9335 9.79134 12.8599 9.79134C12.7863 9.79134 12.7266 9.85103 12.7266 9.92467C12.7266 9.99831 12.7863 10.058 12.8599 10.058Z" fill="#0085D0"/>
<path d="M12.293 9.906C12.3666 9.906 12.4263 9.84631 12.4263 9.77267C12.4263 9.69903 12.3666 9.63934 12.293 9.63934C12.2194 9.63934 12.1597 9.69903 12.1597 9.77267C12.1597 9.84631 12.2194 9.906 12.293 9.906Z" fill="#0085D0"/>
<path d="M11.9999 12.6C12.3313 12.6 12.5999 12.3314 12.5999 12C12.5999 11.6686 12.3313 11.4 11.9999 11.4C11.6685 11.4 11.3999 11.6686 11.3999 12C11.3999 12.3314 11.6685 12.6 11.9999 12.6Z" fill="#0085D0"/>
</g>
<defs>
<clipPath id="clip0_1_1372">
<rect width="24" height="24" fill="white"/>
</clipPath>
</defs>
</svg>
